<svg width="36" height="35" viewBox="0 0 36 35" fill="none" xmlns="http://www.w3.org/2000/svg">
<path d="M13.0933 6.8466L3.91375 11.851C3.09542 12.2808 1.99246 12.0659 1.45877 11.3598L1.06739 10.8378C0.533698 10.1317 0.782755 9.17993 1.63666 8.7194L9.32184 4.54396C10.1402 4.08344 11.2431 4.29835 11.7768 5.03519L13.0933 6.8466Z" fill="#23C6DC"/>
<path d="M16.2954 13.7544L7.04472 18.7895L5.72828 16.9781C5.19459 16.2719 5.44364 15.3202 6.29755 14.8596L12.524 11.4824C13.3423 11.0219 14.4453 11.2368 14.979 11.9737L16.2954 13.7544Z" fill="#23C6DC"/>
<path d="M7.04477 18.8508L1.06741 22.1052C0.249081 22.5657 2.41697e-05 23.5175 0.498137 24.2236L0.889512 24.7456C1.4232 25.4517 2.52617 25.6666 3.3445 25.2368L7.82752 22.7807C8.64585 22.3201 8.8949 21.3684 8.39679 20.6622L7.04477 18.8508Z" fill="#77D7E4"/>
<path d="M22.0237 10.7148L16.3666 13.785L17.683 15.5964C18.2167 16.3026 19.3197 16.5175 20.138 16.0876L22.7709 14.6447C23.5892 14.1841 23.8383 13.2324 23.3402 12.5262L22.0237 10.7148Z" fill="#42A2E3"/>
<path d="M17.0782 4.75879L13.2001 6.87721L14.5165 8.68862C15.0502 9.39476 16.1532 9.60967 16.9715 9.17984L17.8254 8.71932C18.6437 8.25879 18.8928 7.30704 18.3947 6.6009L17.0782 4.75879Z" fill="#42A2E3"/>
<path d="M17.1138 4.66668L19.4976 3.3772C20.3159 2.91668 20.565 1.96492 20.0669 1.25878L19.6755 0.736852C19.1418 0.0307118 18.0388 -0.184201 17.2205 0.245624L16.3666 0.70615C15.5483 1.16668 15.2992 2.11843 15.7973 2.82457L17.1138 4.66668Z" fill="#4481E3"/>
<path d="M22.3795 28.0921L31.559 23.1184C32.3774 22.6579 33.4803 22.8728 34.014 23.6097L34.4054 24.1316C34.9391 24.8377 34.69 25.7895 33.8361 26.25L26.1509 30.3947C25.3326 30.8553 24.2297 30.6404 23.696 29.9035L22.3795 28.0921Z" fill="#42A2E3"/>
<path d="M18.3947 30.1799L22.2728 28.0614L20.9564 26.25C20.4227 25.5439 19.3197 25.329 18.5014 25.7588L17.6475 26.2193C16.8292 26.6799 16.5801 27.6316 17.0782 28.3378L18.3947 30.1799Z" fill="#23C6DC"/>
<path d="M18.3591 30.272L15.9752 31.5614C15.1569 32.022 14.9079 32.9737 15.406 33.6799L15.7973 34.2018C16.331 34.9079 17.434 35.1228 18.2523 34.693L19.1062 34.2325C19.9246 33.772 20.1736 32.8202 19.6755 32.1141L18.3591 30.272Z" fill="#77D7E4"/>
<path d="M22.0237 10.5001L27.7165 7.39918C28.5348 6.93865 28.7839 5.98689 28.2857 5.28075L27.8944 4.75882C27.3607 4.05268 26.2577 3.83777 25.4394 4.2676L21.241 6.53953C20.4227 7.00005 20.1736 7.95181 20.6717 8.65795L22.0237 10.5001Z" fill="#4481E3"/>
<path d="M18.9639 20.9694L28.3569 16.1799L29.6377 18.022C30.1358 18.7589 29.8512 19.6799 28.9973 20.1098L22.6641 23.3641C21.8102 23.794 20.7428 23.5484 20.2447 22.8115L18.9639 20.9694Z" fill="#42A2E3"/>
<path d="M28.3925 15.9649L34.4766 12.864C35.3306 12.4342 35.6152 11.4824 35.1171 10.7763L34.7613 10.2544C34.2632 9.51753 33.1602 9.27191 32.3419 9.70174L27.7521 12.0044C26.8982 12.4342 26.6136 13.3859 27.1117 14.0921L28.3925 15.9649Z" fill="#4481E3"/>
<path d="M13.1289 23.9166L18.8572 20.9693L17.5763 19.1272C17.0782 18.3903 15.9752 18.1447 15.1569 18.5745L12.4884 19.9561C11.6345 20.3859 11.3499 21.3377 11.848 22.0438L13.1289 23.9166Z" fill="#23C6DC"/>
<path d="M13.0933 23.978L7.29386 26.9561C6.43995 27.3859 6.15532 28.3377 6.65343 29.0438L7.00922 29.5658C7.50734 30.3026 8.6103 30.5482 9.42863 30.1184L13.6982 27.9386C14.5521 27.5087 14.8367 26.557 14.3386 25.8508L13.0933 23.978Z" fill="#77D7E4"/>
</svg>
