<svg width="24" height="19" viewBox="0 0 24 19" fill="none" xmlns="http://www.w3.org/2000/svg">
<path d="M5.8843 1.11108C5.8843 0.73748 5.58143 0.434613 5.20782 0.434613C4.83422 0.434613 4.53135 0.73748 4.53135 1.11108L5.8843 1.11108ZM4.72949 18.2561C4.99367 18.5203 5.42198 18.5203 5.68616 18.2561L9.99119 13.9511C10.2554 13.6869 10.2554 13.2586 9.99119 12.9944C9.72702 12.7302 9.2987 12.7302 9.03452 12.9944L5.20783 16.8211L1.38113 12.9944C1.11695 12.7302 0.688634 12.7302 0.424456 12.9944C0.160277 13.2586 0.160277 13.6869 0.424456 13.9511L4.72949 18.2561ZM4.53135 1.11108L4.53135 17.7778L5.8843 17.7778L5.8843 1.11108L4.53135 1.11108Z" fill="#1F2A50"/>
<path d="M18.1159 17.7778C18.1159 18.1514 18.4188 18.4543 18.7924 18.4543C19.166 18.4543 19.4689 18.1514 19.4689 17.7778L18.1159 17.7778ZM19.2708 0.632828C19.0066 0.368649 18.5783 0.368649 18.3141 0.632828L14.009 4.93786C13.7449 5.20204 13.7449 5.63036 14.009 5.89453C14.2732 6.15871 14.7015 6.15871 14.9657 5.89453L18.7924 2.06784L22.6191 5.89453C22.8833 6.15871 23.3116 6.15871 23.5758 5.89453C23.84 5.63036 23.84 5.20204 23.5758 4.93786L19.2708 0.632828ZM19.4689 17.7778L19.4689 1.11116L18.1159 1.11116L18.1159 17.7778L19.4689 17.7778Z" fill="#AAAFBD"/>
</svg>
